<?xml version="1.0" encoding="utf-8"?>
<!-- Generator: Adobe Illustrator 13.0.0, SVG Export Plug-In . SVG Version: 6.00 Build 14576)  -->
<!DOCTYPE svg PUBLIC "-//W3C//DTD SVG 1.1//EN" "http://www.w3.org/Graphics/SVG/1.1/DTD/svg11.dtd">
<svg version="1.1" id="Layer_1" xmlns="http://www.w3.org/2000/svg" xmlns:xlink="http://www.w3.org/1999/xlink" x="0px" y="0px"
	 width="2000px" height="2000px" viewBox="0 0 2000 2000" enable-background="new 0 0 2000 2000" xml:space="preserve">
<g>
	<rect x="5.837" y="-1.472" fill="#242424" width="1992.663" height="2005.972"/>
</g>
<g>
	<g>
		<linearGradient id="SVGID_1_" gradientUnits="userSpaceOnUse" x1="91.353" y1="1006.4551" x2="1903.9844" y2="1006.4551">
			<stop  offset="0.0055" style="stop-color:#00D4FF"/>
			<stop  offset="0.2261" style="stop-color:#00D0FE"/>
			<stop  offset="0.4282" style="stop-color:#00C5FC"/>
			<stop  offset="0.6232" style="stop-color:#00B3F9"/>
			<stop  offset="0.8126" style="stop-color:#0099F4"/>
			<stop  offset="0.9984" style="stop-color:#0077ED"/>
			<stop  offset="1" style="stop-color:#0077ED"/>
		</linearGradient>
		<path fill="url(#SVGID_1_)" d="M91.353,1006.468c0.142-499.957,406.352-906.192,906.309-906.346l0,0
			c499.97,0.154,906.18,406.401,906.322,906.346l0,0c-0.143,499.956-406.353,906.179-906.322,906.321l0,0v-75.606v-75.614
			c208.308-0.036,396.654-84.552,533.667-221.446l0,0c136.883-137.013,221.398-325.348,221.422-533.654l0,0
			c-0.023-208.307-84.539-396.653-221.422-533.667l0,0c-137.013-136.908-325.359-221.41-533.667-221.446l0,0
			c-208.307,0.036-396.653,84.538-533.642,221.446l0,0C327.112,609.814,242.598,798.17,242.574,1006.468l0,0
			c0.023,208.307,84.538,396.642,221.446,533.654l0,0c136.989,136.895,325.335,221.41,533.642,221.446l0,0v75.614v75.606
			C497.705,1912.636,91.495,1506.424,91.353,1006.468L91.353,1006.468z"/>
	</g>
	<g>
		<linearGradient id="SVGID_2_" gradientUnits="userSpaceOnUse" x1="389.9775" y1="1006.4561" x2="1605.3477" y2="1006.4561">
			<stop  offset="0.0055" style="stop-color:#00D4FF"/>
			<stop  offset="0.2261" style="stop-color:#00D0FE"/>
			<stop  offset="0.4282" style="stop-color:#00C5FC"/>
			<stop  offset="0.6232" style="stop-color:#00B3F9"/>
			<stop  offset="0.8126" style="stop-color:#0099F4"/>
			<stop  offset="0.9984" style="stop-color:#0077ED"/>
			<stop  offset="1" style="stop-color:#0077ED"/>
		</linearGradient>
		<path fill="url(#SVGID_2_)" d="M389.978,1006.443c0.117-335.246,272.415-607.555,607.673-607.685l0,0
			c335.282,0.129,607.567,272.429,607.697,607.685l0,0c-0.13,335.28-272.415,607.579-607.697,607.71l0,0v-66.553v-66.538
			c130.953-0.024,249.25-53.097,335.434-139.186l0,0c86.077-86.184,139.162-204.469,139.185-335.434l0,0
			c-0.022-130.941-53.107-249.226-139.185-335.409l0,0c-86.184-86.078-204.48-139.162-335.434-139.198l0,0
			c-130.954,0.036-249.226,53.12-335.409,139.198l0,0c-86.09,86.183-139.161,204.467-139.186,335.409l0,0
			c0.024,130.965,53.095,249.25,139.186,335.434l0,0c86.184,86.089,204.456,139.161,335.409,139.186l0,0v66.538v66.553
			C662.393,1614.022,390.095,1341.713,389.978,1006.443L389.978,1006.443z"/>
	</g>
	<g>
		<linearGradient id="SVGID_3_" gradientUnits="userSpaceOnUse" x1="678.48" y1="1006.4609" x2="1316.8447" y2="1006.4609">
			<stop  offset="0.0055" style="stop-color:#00D4FF"/>
			<stop  offset="0.2261" style="stop-color:#00D0FE"/>
			<stop  offset="0.4282" style="stop-color:#00C5FC"/>
			<stop  offset="0.6232" style="stop-color:#00B3F9"/>
			<stop  offset="0.8126" style="stop-color:#0099F4"/>
			<stop  offset="0.9984" style="stop-color:#0077ED"/>
			<stop  offset="1" style="stop-color:#0077ED"/>
		</linearGradient>
		<path fill="url(#SVGID_3_)" d="M678.48,1006.456c0.118-176.158,143.013-319.077,319.182-319.183l0,0
			c176.183,0.105,319.077,143.034,319.183,319.183l0,0c-0.105,176.157-143,319.076-319.183,319.193l0,0v-57.474v-57.463
			c56.431-0.024,107.155-22.815,144.34-59.905l0,0c37.127-37.209,59.894-87.934,59.917-144.352l0,0
			c-0.023-56.407-22.79-107.143-59.917-144.353l0,0c-37.185-37.102-87.921-59.881-144.34-59.904l0,0
			c-56.406,0.023-107.13,22.803-144.34,59.904l0,0c-37.114,37.209-59.892,87.945-59.904,144.353l0,0
			c0.012,56.418,22.791,107.143,59.904,144.352l0,0c37.21,37.102,87.934,59.881,144.34,59.905l0,0v57.463v57.474
			C821.493,1325.523,678.586,1182.613,678.48,1006.456L678.48,1006.456z"/>
	</g>
</g>
</svg>
