<?xml version="1.0" encoding="utf-8"?>
<!-- Generator: Adobe Illustrator 13.0.0, SVG Export Plug-In . SVG Version: 6.00 Build 14576)  -->
<!DOCTYPE svg PUBLIC "-//W3C//DTD SVG 1.1//EN" "http://www.w3.org/Graphics/SVG/1.1/DTD/svg11.dtd">
<svg version="1.1" id="Layer_1" xmlns="http://www.w3.org/2000/svg" xmlns:xlink="http://www.w3.org/1999/xlink" x="0px" y="0px"
	 width="2000px" height="400px" viewBox="0 0 2000 400" enable-background="new 0 0 2000 400" xml:space="preserve">
<rect x="4.876" y="3.754" fill="#242424" width="1995.86" height="396.585"/>
<g>
	<g>
		<path fill="#45C7F0" d="M171.026,255.484H85.948L63.81,303.75H31.503l98.335-211.213l94.859,211.213h-32.821L171.026,255.484z
			 M158.798,227.297l-29.474-67.574l-30.891,67.574H158.798z"/>
		<path fill="#45C7F0" d="M262.719,303.75V91.506l144.928,151.622V105.021h29.989v210.826L292.708,164.614V303.75H262.719z"/>
		<path fill="#45C7F0" d="M498.438,303.75V105.021h41.702c19.993,0,35.781,1.975,47.366,5.921
			c12.44,3.861,23.725,10.426,33.851,19.692c20.507,18.708,30.761,43.291,30.761,73.751c0,30.549-10.683,55.261-32.049,74.139
			c-10.727,9.438-21.967,16.002-33.722,19.692c-10.985,3.69-26.559,5.533-46.722,5.533H498.438z M528.428,275.562h13.514
			c13.471,0,24.668-1.415,33.594-4.248c8.923-3.002,16.99-7.765,24.197-14.286c14.757-13.47,22.138-31.019,22.138-52.643
			c0-21.794-7.294-39.47-21.88-53.028c-13.128-12.099-32.479-18.148-58.048-18.148h-13.514V275.562z"/>
		<path fill="#45C7F0" d="M770.326,219.059l61.523,84.691h-36.682l-56.761-81.346h-5.407v81.346H703.01V105.021h35.139
			c26.257,0,45.219,4.936,56.89,14.801c12.871,10.985,19.307,25.485,19.307,43.505c0,14.074-4.035,26.173-12.099,36.296
			C794.18,209.75,783.539,216.229,770.326,219.059z M732.999,196.277h9.526c28.4,0,42.603-10.853,42.603-32.563
			c0-20.336-13.816-30.504-41.445-30.504h-10.684V196.277z"/>
		<path fill="#0077ED" d="M1173.051,303.75l41.829-213.658l68.216,154.451l70.664-154.451l37.582,213.658h-30.762l-19.177-119.958
			l-58.823,129.096l-57.145-129.225l-21.367,120.086H1173.051z"/>
		<path fill="#0077ED" d="M1556.271,133.209H1476.6v47.751h77.355v28.188H1476.6v66.414h79.671v28.188h-109.662V105.021h109.662
			V133.209z"/>
		<path fill="#0077ED" d="M1608.835,303.75V105.021h41.704c19.992,0,35.78,1.975,47.364,5.921
			c12.44,3.861,23.726,10.426,33.852,19.692c20.508,18.708,30.762,43.291,30.762,73.751c0,30.549-10.683,55.261-32.049,74.139
			c-10.727,9.438-21.967,16.002-33.723,19.692c-10.984,3.69-26.559,5.533-46.722,5.533H1608.835z M1638.826,275.562h13.513
			c13.472,0,24.669-1.415,33.594-4.248c8.925-3.002,16.99-7.765,24.198-14.286c14.759-13.47,22.139-31.019,22.139-52.643
			c0-21.794-7.296-39.47-21.881-53.028c-13.13-12.099-32.479-18.148-58.05-18.148h-13.513V275.562z"/>
		<path fill="#0077ED" d="M1920.367,255.484h-85.078l-22.138,48.266h-32.307l98.337-211.213l94.858,211.213h-32.822
			L1920.367,255.484z M1908.14,227.297l-29.474-67.574l-30.892,67.574H1908.14z"/>
	</g>
	<g>
		<g>
			<linearGradient id="SVGID_1_" gradientUnits="userSpaceOnUse" x1="865.8394" y1="206.252" x2="1135.501" y2="206.252">
				<stop  offset="0.0055" style="stop-color:#00D4FF"/>
				<stop  offset="0.2261" style="stop-color:#00D0FE"/>
				<stop  offset="0.4282" style="stop-color:#00C5FC"/>
				<stop  offset="0.6232" style="stop-color:#00B3F9"/>
				<stop  offset="0.8126" style="stop-color:#0099F4"/>
				<stop  offset="0.9984" style="stop-color:#0077ED"/>
				<stop  offset="1" style="stop-color:#0077ED"/>
			</linearGradient>
			<path fill="url(#SVGID_1_)" d="M865.839,206.254c0.021-74.377,60.452-134.812,134.83-134.835l0,0
				c74.38,0.023,134.812,60.46,134.832,134.835l0,0c-0.021,74.377-60.452,134.812-134.832,134.832l0,0v-11.248v-11.251
				c30.99-0.002,59.011-12.576,79.392-32.943l0,0c20.365-20.383,32.939-48.4,32.942-79.39l0,0
				c-0.003-30.989-12.577-59.01-32.942-79.393l0,0c-20.381-20.368-48.401-32.939-79.392-32.944l0,0
				c-30.988,0.005-59.01,12.576-79.389,32.944l0,0c-20.368,20.383-32.94,48.405-32.944,79.393l0,0
				c0.003,30.989,12.576,59.007,32.944,79.39l0,0c20.379,20.367,48.4,32.941,79.389,32.943l0,0v11.251v11.248
				C926.292,341.063,865.86,280.631,865.839,206.254L865.839,206.254z"/>
		</g>
		<g>
			<linearGradient id="SVGID_2_" gradientUnits="userSpaceOnUse" x1="910.2656" y1="206.252" x2="1091.0742" y2="206.252">
				<stop  offset="0.0055" style="stop-color:#00D4FF"/>
				<stop  offset="0.2261" style="stop-color:#00D0FE"/>
				<stop  offset="0.4282" style="stop-color:#00C5FC"/>
				<stop  offset="0.6232" style="stop-color:#00B3F9"/>
				<stop  offset="0.8126" style="stop-color:#0099F4"/>
				<stop  offset="0.9984" style="stop-color:#0077ED"/>
				<stop  offset="1" style="stop-color:#0077ED"/>
			</linearGradient>
			<path fill="url(#SVGID_2_)" d="M910.266,206.25c0.017-49.874,40.526-90.384,90.401-90.403l0,0
				c49.879,0.019,90.388,40.528,90.407,90.403l0,0c-0.02,49.88-40.528,90.388-90.407,90.408l0,0v-9.901v-9.898
				c19.482-0.004,37.081-7.898,49.901-20.707l0,0c12.807-12.82,20.703-30.419,20.707-49.901l0,0
				c-0.004-19.48-7.9-37.077-20.707-49.897l0,0c-12.82-12.806-30.419-20.703-49.901-20.708l0,0
				c-19.481,0.006-37.077,7.902-49.897,20.708l0,0c-12.808,12.821-20.703,30.417-20.707,49.897l0,0
				c0.004,19.482,7.899,37.081,20.707,49.901l0,0c12.821,12.809,30.416,20.703,49.897,20.707l0,0v9.898v9.901
				C950.792,296.638,910.283,256.127,910.266,206.25L910.266,206.25z"/>
		</g>
		<g>
			<linearGradient id="SVGID_3_" gradientUnits="userSpaceOnUse" x1="953.1851" y1="206.2529" x2="1048.1543" y2="206.2529">
				<stop  offset="0.0055" style="stop-color:#00D4FF"/>
				<stop  offset="0.2261" style="stop-color:#00D0FE"/>
				<stop  offset="0.4282" style="stop-color:#00C5FC"/>
				<stop  offset="0.6232" style="stop-color:#00B3F9"/>
				<stop  offset="0.8126" style="stop-color:#0099F4"/>
				<stop  offset="0.9984" style="stop-color:#0077ED"/>
				<stop  offset="1" style="stop-color:#0077ED"/>
			</linearGradient>
			<path fill="url(#SVGID_3_)" d="M953.185,206.252c0.018-26.207,21.275-47.469,47.484-47.484l0,0
				c26.211,0.015,47.469,21.279,47.485,47.484l0,0c-0.017,26.207-21.274,47.469-47.485,47.485l0,0v-8.549v-8.55
				c8.396-0.004,15.942-3.395,21.475-8.91l0,0c5.522-5.536,8.908-13.083,8.912-21.477l0,0c-0.004-8.391-3.39-15.939-8.912-21.475
				l0,0c-5.532-5.519-13.081-8.909-21.475-8.912l0,0c-8.392,0.003-15.938,3.393-21.473,8.912l0,0
				c-5.522,5.536-8.911,13.084-8.913,21.475l0,0c0.002,8.394,3.391,15.94,8.913,21.477l0,0c5.535,5.519,13.081,8.906,21.473,8.91
				l0,0v8.55v8.549C974.46,253.719,953.201,232.459,953.185,206.252L953.185,206.252z"/>
		</g>
	</g>
</g>
</svg>
